<?xml version="1.0" encoding="UTF-8" standalone="no"?>
<!-- Generator: Adobe Illustrator 21.0.0, SVG Export Plug-In . SVG Version: 6.00 Build 0)  -->

<svg
   xmlns:dc="http://purl.org/dc/elements/1.1/"
   xmlns:cc="http://creativecommons.org/ns#"
   xmlns:rdf="http://www.w3.org/1999/02/22-rdf-syntax-ns#"
   xmlns:svg="http://www.w3.org/2000/svg"
   xmlns="http://www.w3.org/2000/svg"
   xmlns:sodipodi="http://sodipodi.sourceforge.net/DTD/sodipodi-0.dtd"
   xmlns:inkscape="http://www.inkscape.org/namespaces/inkscape"
   version="1.1"
   id="Calque_1"
   x="0px"
   y="0px"
   viewBox="0 0 363 196.30002"
   xml:space="preserve"
   inkscape:version="0.91 r13725"
   sodipodi:docname="Illus_siteRH_archi.svg"
   width="363"
   height="196.30002"><metadata
     id="metadata135"><rdf:RDF><cc:Work
         rdf:about=""><dc:format>image/svg+xml</dc:format><dc:type
           rdf:resource="http://purl.org/dc/dcmitype/StillImage" /><dc:title></dc:title></cc:Work></rdf:RDF></metadata><defs
     id="defs133" /><sodipodi:namedview
     pagecolor="#ffffff"
     bordercolor="#666666"
     borderopacity="1"
     objecttolerance="10"
     gridtolerance="10"
     guidetolerance="10"
     inkscape:pageopacity="0"
     inkscape:pageshadow="2"
     inkscape:window-width="1287"
     inkscape:window-height="654"
     id="namedview131"
     showgrid="false"
     fit-margin-top="0"
     fit-margin-left="0"
     fit-margin-right="0"
     fit-margin-bottom="0"
     inkscape:zoom="1.0407938"
     inkscape:cx="64.019792"
     inkscape:cy="22.883342"
     inkscape:window-x="0"
     inkscape:window-y="23"
     inkscape:window-maximized="0"
     inkscape:current-layer="Calque_1" /><style
     type="text/css"
     id="style3">
	.st0{fill:#70B74E;}
	.st1{fill:#84BE60;}
	.st2{fill:#95C672;}
	.st3{fill:#A4CD85;}
	.st4{fill:#B2D498;}
	.st5{fill:#C1DCAA;}
	.st6{fill:#CEE3BD;}
	.st7{fill:#DBEACE;}
	.st8{fill:#E7F1DF;}
	.st9{fill:#F3F8F0;}
	.st10{fill:#232B51;}
	.st11{fill:#F1F1F5;}
	.st12{fill:#DEDCE5;}
	.st13{fill:#222B51;}
	.st14{fill:#86829C;}
	.st15{fill:#575677;}
	.st16{fill:#DBD9E3;}
	.st17{fill:#A7A3B7;}
	.st18{fill:#FFFFFF;}
	.st19{fill:#5F5D7D;}
	.st20{fill:#9D99AF;}
	.st21{fill:#CCC9D6;}
	.st22{fill:#BDB9C9;}
	.st23{fill:#AEAABD;}
	.st24{fill:#222B50;}
	.st25{fill:#827E99;}
	.st26{fill:#D0E8F1;}
	.st27{fill:#D6D4DE;}
	.st28{fill:#6C6987;}
	.st29{fill:#7D7995;}
	.st30{fill:#9692A9;}
	.st31{fill:#9894AB;}
	.st32{fill:#C7C4D2;}
	.st33{fill:#ACD8E7;}
	.st34{fill:#B3AFC1;}
	.st35{fill:#9A97AD;}
	.st36{fill:#E0F0F6;}
	.st37{fill-rule:evenodd;clip-rule:evenodd;fill:#ECEBF0;}
	.st38{fill-rule:evenodd;clip-rule:evenodd;fill:#222B51;}
	.st39{fill-rule:evenodd;clip-rule:evenodd;fill:#DBD9E3;}
	.st40{fill-rule:evenodd;clip-rule:evenodd;fill:#F0F0F0;}
	.st41{fill-rule:evenodd;clip-rule:evenodd;fill:#DEDCE5;}
	.st42{fill-rule:evenodd;clip-rule:evenodd;fill:#BAB7C7;}
	.st43{fill-rule:evenodd;clip-rule:evenodd;fill:#D6D4DE;}
	.st44{opacity:0.3;fill:#D1CFDA;}
	.st45{fill:#7B7793;}
	.st46{fill:#BFE1EC;}
	.st47{fill:#E1DFE7;}
	.st48{fill:#B1ADBF;}
	.st49{fill:#D1CFDA;}
	.st50{fill:#222B50;stroke:#222B50;stroke-miterlimit:10;}
	.st51{fill:none;stroke:#778692;stroke-width:0.8545;stroke-linecap:round;stroke-linejoin:round;stroke-miterlimit:10;}
	.st52{fill:none;stroke:#B1ADBF;stroke-width:3.1327;stroke-linecap:round;stroke-linejoin:round;stroke-miterlimit:10;}
	.st53{fill:none;stroke:#778692;stroke-width:0.8637;stroke-linecap:round;stroke-linejoin:round;stroke-miterlimit:10;}
	.st54{fill:#4D4D70;}
	.st55{fill-rule:evenodd;clip-rule:evenodd;fill:#222B50;}
	.st56{fill-rule:evenodd;clip-rule:evenodd;fill:#BDB9C9;}
	.st57{fill:#A0D5D5;}
	.st58{fill:#0C2637;}
	.st59{fill:#656382;}
	.st60{fill:#565677;}
	.st61{fill:#D1EAEA;}
	.st62{fill:#9ED4D4;}
	.st63{fill:#75718E;}
	.st64{fill:#A4A0B5;}
	.st65{fill:#A29EB3;}
	.st66{fill:#A5A8C5;}
	.st67{fill:#8C90B4;}
	.st68{fill:#ECEBF0;}
	.st69{fill:#E6E5EC;}
	.st70{fill:#E7E5EC;}
	.st71{fill:#212B51;}
	.st72{fill-rule:evenodd;clip-rule:evenodd;fill:#84BE60;}
	.st73{fill-rule:evenodd;clip-rule:evenodd;fill:#D0E8F1;}
	.st74{fill-rule:evenodd;clip-rule:evenodd;fill:#FFFFFF;}
	.st75{fill:none;stroke:#FFFFFF;stroke-width:1.816;stroke-linecap:round;stroke-linejoin:round;stroke-miterlimit:10;}
	.st76{fill:#00AFCB;}
	.st77{fill:none;stroke:#212B51;stroke-width:3.44;}
	.st78{fill:#D4D1DC;}
	.st79{fill:#46476A;}
	.st80{fill:#9DD4D4;}
	.st81{fill-rule:evenodd;clip-rule:evenodd;fill:#F2F0F5;}
	.st82{fill:#DB5A29;}
	.st83{fill:#7C7894;}
	.st84{fill:#706D8B;}
	.st85{fill:#B5DCEA;}
	.st86{fill:#EBF5FA;}
	.st87{fill:none;stroke:#778692;stroke-width:1.1677;stroke-linecap:round;stroke-linejoin:round;stroke-miterlimit:10;}
	.st88{fill:#A4D7D6;}
	.st89{fill-rule:evenodd;clip-rule:evenodd;fill:#F1F1F5;}
	.st90{fill:#444569;}
	.st91{fill-rule:evenodd;clip-rule:evenodd;fill:#212B51;}
	.st92{fill:#FCD946;stroke:#FFFFFF;stroke-width:0.55;stroke-linecap:round;stroke-linejoin:round;stroke-miterlimit:10;}
	.st93{fill:#5B5A7A;}
	.st94{fill:#47486B;}
	.st95{fill:#C0E2E2;}
	.st96{fill:#88849E;}
	.st97{fill:#E9E8EE;}
	.st98{fill-rule:evenodd;clip-rule:evenodd;fill:#C0E2E2;}
	.st99{fill-rule:evenodd;clip-rule:evenodd;fill:#4F4F71;}
	.st100{fill-rule:evenodd;clip-rule:evenodd;fill:#CCC9D6;}
	.st101{fill-rule:evenodd;clip-rule:evenodd;fill:#CECCD8;}
	.st102{fill-rule:evenodd;clip-rule:evenodd;fill:#E3E2E9;}
	.st103{fill-rule:evenodd;clip-rule:evenodd;fill:#B3AFC1;}
	.st104{fill:#494A6D;}
	.st105{fill:#BBE0E0;}
	.st106{fill:#6DC3C3;}
	.st107{fill:#00B0CC;}
	.st108{fill:#46B8D2;}
	.st109{fill:#222B50;stroke:#222B50;stroke-width:1.8392;stroke-miterlimit:10;}
	.st110{fill:none;stroke:#778692;stroke-width:1.5716;stroke-linecap:round;stroke-linejoin:round;stroke-miterlimit:10;}
	.st111{fill:none;stroke:#B1ADBF;stroke-width:5.7616;stroke-linecap:round;stroke-linejoin:round;stroke-miterlimit:10;}
	.st112{fill:none;stroke:#778692;stroke-width:1.5886;stroke-linecap:round;stroke-linejoin:round;stroke-miterlimit:10;}
	.st113{fill-rule:evenodd;clip-rule:evenodd;fill:#6DC3C3;}
	.st114{fill:none;stroke:#FFFFFF;stroke-width:2.83;stroke-linecap:round;stroke-linejoin:round;stroke-miterlimit:10;}
	.st115{fill:none;stroke:#212B51;stroke-width:5.3608;}
	.st116{fill:#A9D9D8;}
	.st117{fill:none;stroke:#778692;stroke-width:2.0467;stroke-linecap:round;stroke-linejoin:round;stroke-miterlimit:10;}
	.st118{fill:#FCD946;stroke:#FFFFFF;stroke-width:0.9639;stroke-linecap:round;stroke-linejoin:round;stroke-miterlimit:10;}
	.st119{fill:#B2B2B2;}
	.st120{fill:#989999;}
	.st121{fill:#E4E4E3;}
	.st122{fill:#D4D2DD;}
	.st123{fill:#414367;}
	.st124{fill:#3D3E3E;}
	.st125{fill:#020203;}
	.st126{fill:#87BBAD;}
	.st127{fill:#595879;}
	.st128{fill:#797591;}
	.st129{fill:none;stroke:#FFFFFF;stroke-width:2.4975;stroke-linecap:round;stroke-linejoin:round;stroke-miterlimit:10;}
	.st130{fill:none;stroke:#212B51;stroke-width:4.7309;}
</style><g
     id="g4263"
     transform="translate(0,-43.699978)"><path
       style="fill:#f1f1f5"
       inkscape:connector-curvature="0"
       d="m 353.9,76.199979 -58.6,0 c -4.3,0 -9,-2.9 -9,-7.2 l 0,-0.2 c 0,-4.3 4.7,-7.4 9,-7.4 l 32.1,0 c 4.7,0 7.6,-4.1 7.6,-8.8 l 0,-0.2 c 0,-4.700001 -3,-8.700001 -7.6,-8.700001 l -156.7,0 c -4.7,0 -8.4,4.1 -8.4,8.700001 l 0,0.2 c 0,4.7 3.7,8.8 8.4,8.8 l 47.5,0 c 4.3,0 7.6,3.1 7.6,7.4 l 0,0.2 c 0,4.3 -3.3,7.2 -7.6,7.2 l -4.2,0 c -5,0 -10.3,4.6 -10.3,9.6 l 0,0.2 c 0,5 5.3,9.4 10.3,9.4 l 139.9,0 c 5,0 9.1,-4.4 9.1,-9.4 l 0,-0.2 c 0,-4.9 -4.1,-9.6 -9.1,-9.6 z"
       class="st11"
       id="XMLID_697_" /><path
       style="fill:#f1f1f5"
       inkscape:connector-curvature="0"
       d="m 88.1,74.699979 -24.4,0 c -1.8,0 -3.2,-1.6 -3.2,-3.4 l 0,-0.1 c 0,-1.8 1.4,-3.9 3.2,-3.9 l 13.3,0 c 1.9,0 2.7,-0.9 2.7,-2.8 l 0,-0.1 c 0,-1.9 -0.7,-3 -2.7,-3 l -65.1,0 c -1.9,0 -4.5,1.1 -4.5,3 l 0,0.1 c 0,1.9 2.6,2.8 4.5,2.8 l 19.8,0 c 1.8,0 2.3,2.1 2.3,3.9 l 0,0.1 c 0,1.8 -0.5,3.4 -2.3,3.4 l -1.8,0 c -2.1,0 -4.8,1.5 -4.8,3.6 l 0,0.1 c 0,2.1 2.7,3.7 4.8,3.7 l 58.2,0 c 2.1,0 3.4,-1.6 3.4,-3.7 l 0,-0.1 c 0,-2 -1.4,-3.6 -3.4,-3.6 z"
       class="st11"
       id="XMLID_696_" /><path
       style="fill:#dedce5"
       inkscape:connector-curvature="0"
       d="m 314.3,188.39999 -285.9,0 c -5,0 -9.2,4.3 -9.2,9.2 l 0,0.2 c 0,5 4.3,8.3 9.2,8.3 l 17,0 c 2.7,0 4.8,2.8 4.8,5.5 l 0,0.1 c 0,2.7 -2.1,4.7 -4.8,4.7 l -33.7,0 c -6.2,0 -11.7,5.2 -11.7,11.5 l 0,0.2 c 0,6.2 5.5,11.9 11.7,11.9 l 289.3,0 c 6.2,0 10.3,-5.7 10.3,-11.9 l 0,-0.2 c 0,-6.2 -4.1,-11.5 -10.3,-11.5 l -26.5,0 c -2.7,0 -5.9,-2 -5.9,-4.7 l 0,-0.1 c 0,-2.7 3.3,-5.5 5.9,-5.5 l 39.8,0 c 5,0 8.9,-3.4 8.9,-8.3 l 0,-0.2 c 0,-5 -3.9,-9.2 -8.9,-9.2 z"
       class="st12"
       id="XMLID_695_" /><g
       transform="translate(-56,-112.80001)"
       id="g8"><g
         id="XMLID_689_"><g
           id="XMLID_692_"><rect
             style="fill:#222b51"
             height="7.4000001"
             width="36.900002"
             class="st13"
             y="304.10001"
             x="308.29999"
             id="XMLID_694_" /><rect
             style="fill:#222b51"
             height="7.4000001"
             width="36.900002"
             class="st13"
             y="289.39999"
             x="308.29999"
             id="XMLID_693_" /></g><g
           id="XMLID_690_"><rect
             style="fill:#222b51"
             height="7.4000001"
             width="36.900002"
             class="st13"
             y="296.70001"
             x="308.29999"
             id="XMLID_691_" /></g></g><rect
         style="fill:#222b51"
         height="88.5"
         width="3"
         class="st13"
         y="223"
         x="258.20001"
         id="XMLID_688_" /><path
         style="fill:#222b51"
         inkscape:connector-curvature="0"
         d="m 303.9,243.6 0,-4.4 -22.1,0 0,-16.2 -3,0 0,16.2 -4.4,0 0,-16.2 -3,0 0,16.2 -4.4,0 0,-16.2 -3,0 0,16.2 -20.7,0 0,4.4 20.7,0 0,3 -20.7,0 0,4.4 20.7,0 0,8.9 -19.2,0 0,4.4 19.2,0 0,3 -19.2,0 0,4.4 19.2,0 0,10.3 -19.2,0 0,4.4 19.2,0 0,3 -19.2,0 0,4.4 19.2,0 0,17.7 3,0 0,-17.7 4.4,0 0,17.7 3,0 0,-17.7 4.4,0 0,17.7 3,0 0,-17.7 22.1,0 0,-4.4 -22.1,0 0,-3 22.1,0 0,-4.4 -22.1,0 0,-10.3 22.1,0 0,-4.4 -22.1,0 0,-3 22.1,0 0,-4.4 -22.1,0 0,-8.9 22.1,0 0,-4.4 -22.1,0 0,-3 22.1,0 z m -36.9,0 4.4,0 0,3 -4.4,0 0,-3 z m 4.5,45.8 -4.5,0 0,-3 4.4,0 0,3 z m 0,-7.4 -4.5,0 0,-10.3 4.4,0 0,10.3 z m 0,-14.8 -4.5,0 0,-3 4.4,0 0,3 z m -4.5,-7.4 0,-8.8 4.4,0 0,8.9 -4.4,0 z m 11.8,29.6 -4.4,0 0,-3 4.4,0 0,3 z m 0,-7.4 -4.4,0 0,-10.3 4.4,0 0,10.3 z m 0,-14.8 -4.4,0 0,-3 4.4,0 0,3 z m 0,-7.4 -4.4,0 0,-8.8 4.4,0 0,8.8 z m 0,-13.2 -4.4,0 0,-3 4.4,0 0,3 z"
         class="st13"
         id="XMLID_676_" /><rect
         style="fill:#86829c"
         height="110.7"
         width="7.4000001"
         class="st14"
         y="200.8"
         x="315.70001"
         id="XMLID_675_" /><rect
         style="fill:#86829c"
         height="110.7"
         width="8.8999996"
         class="st14"
         y="200.8"
         x="234.60001"
         id="XMLID_674_" /><rect
         style="fill:#575677"
         height="110.7"
         width="5.9000001"
         class="st15"
         y="200.8"
         x="240.5"
         id="XMLID_673_" /><rect
         style="fill:#86829c"
         height="7.4000001"
         width="42.799999"
         class="st14"
         y="296.70001"
         x="237.5"
         id="XMLID_672_" /><rect
         style="fill:#575677"
         height="7.4000001"
         width="44.299999"
         class="st15"
         y="296.70001"
         x="280.29999"
         id="XMLID_671_" /><rect
         style="fill:#86829c"
         height="7.4000001"
         width="42.799999"
         class="st14"
         y="274.60001"
         x="237.5"
         id="XMLID_670_" /><rect
         style="fill:#575677"
         height="7.4000001"
         width="44.299999"
         class="st15"
         y="274.60001"
         x="280.29999"
         id="XMLID_669_" /><rect
         style="fill:#86829c"
         height="5.9000001"
         width="42.799999"
         class="st14"
         y="253.89999"
         x="237.5"
         id="XMLID_668_" /><rect
         style="fill:#575677"
         height="5.9000001"
         width="44.299999"
         class="st15"
         y="253.89999"
         x="280.29999"
         id="XMLID_667_" /><rect
         style="fill:#86829c"
         height="7.4000001"
         width="42.799999"
         class="st14"
         y="231.8"
         x="237.5"
         id="XMLID_666_" /><rect
         style="fill:#575677"
         height="7.4000001"
         width="44.299999"
         class="st15"
         y="231.8"
         x="280.29999"
         id="XMLID_665_" /><rect
         style="fill:#86829c"
         height="7.4000001"
         width="42.799999"
         class="st14"
         y="209.7"
         x="237.5"
         id="XMLID_664_" /><rect
         style="fill:#575677"
         height="7.4000001"
         width="44.299999"
         class="st15"
         y="209.7"
         x="280.29999"
         id="XMLID_663_" /><rect
         style="fill:#575677"
         height="110.7"
         width="5.9000001"
         class="st15"
         y="200.8"
         x="321.60001"
         id="XMLID_662_" /><rect
         style="fill:#86829c"
         height="110.7"
         width="8.8999996"
         class="st14"
         y="200.8"
         x="274.39999"
         id="XMLID_661_" /><rect
         style="fill:#575677"
         height="110.7"
         width="5.9000001"
         class="st15"
         y="200.8"
         x="280.29999"
         id="XMLID_660_" /><g
         id="XMLID_637_"><path
           style="fill:#575677"
           inkscape:connector-curvature="0"
           d="m 342,279.9 c -0.4,-0.4 -1.2,-0.6 -1.8,-0.6 -1.2,0 -2.4,1 -2.4,2.2 l 0,6.4 4.4,0 0,-6.4 c 0.1,-0.6 0.2,-1.2 -0.2,-1.6 z m -1.2,6.5 -1.5,0 0,-5 c 0,-0.4 0.3,-0.7 0.7,-0.7 0.4,0 0.7,0.3 0.7,0.7 l 0,5 z"
           class="st15"
           id="XMLID_657_" /><path
           style="fill:#575677"
           inkscape:connector-curvature="0"
           d="m 349.3,279.9 c -0.4,-0.4 -1.1,-0.6 -1.7,-0.6 -1.2,0 -2.4,1 -2.4,2.2 l 0,6.4 4.4,0 0,-6.4 c 0.1,-0.6 0.1,-1.2 -0.3,-1.6 z m -1.1,6.5 -1.5,0 0,-5 c 0,-0.4 0.3,-0.7 0.7,-0.7 0.4,0 0.7,0.3 0.7,0.7 l 0,5 z"
           class="st15"
           id="XMLID_654_" /><path
           style="fill:#575677"
           inkscape:connector-curvature="0"
           d="m 365.4,279.9 c -0.4,-0.4 -1,-0.6 -1.6,-0.6 -1.2,0 -2.3,1 -2.3,2.2 l 0,6.4 4.4,0 0,-6.4 c 0,-0.6 -0.1,-1.2 -0.5,-1.6 z m -1,6.5 -1.5,0 0,-5 c 0,-0.4 0.3,-0.7 0.7,-0.7 0.4,0 0.7,0.3 0.7,0.7 l 0,5 z"
           class="st15"
           id="XMLID_651_" /><path
           style="fill:#575677"
           inkscape:connector-curvature="0"
           d="m 372.7,279.9 c -0.4,-0.4 -1,-0.6 -1.6,-0.6 -1.2,0 -2.2,1 -2.2,2.2 l 0,6.4 4.4,0 0,-6.4 c 0,-0.6 -0.2,-1.2 -0.6,-1.6 z m -0.9,6.5 -1.5,0 0,-5 c 0,-0.4 0.3,-0.7 0.7,-0.7 0.4,0 0.7,0.3 0.7,0.7 l 0,5 z"
           class="st15"
           id="XMLID_648_" /><rect
           style="fill:#86829c"
           height="7.4000001"
           width="36.900002"
           class="st14"
           y="296.70001"
           x="334.89999"
           id="XMLID_647_" /><rect
           style="fill:#575677"
           height="7.4000001"
           width="10.3"
           class="st15"
           y="296.70001"
           x="365.89999"
           id="XMLID_646_" /><rect
           style="fill:#86829c"
           height="5.9000001"
           width="36.900002"
           class="st14"
           y="283.5"
           x="334.89999"
           id="XMLID_645_" /><rect
           style="fill:#575677"
           height="5.9000001"
           width="10.3"
           class="st15"
           y="283.5"
           x="365.89999"
           id="XMLID_644_" /><rect
           style="fill:#575677"
           height="7.4000001"
           width="36.900002"
           class="st15"
           y="304.10001"
           x="334.89999"
           id="XMLID_643_" /><rect
           style="fill:#222b51"
           height="7.4000001"
           width="10.3"
           class="st13"
           y="304.10001"
           x="365.89999"
           id="XMLID_642_" /><rect
           style="fill:#575677"
           height="7.4000001"
           width="36.900002"
           class="st15"
           y="289.39999"
           x="334.89999"
           id="XMLID_641_" /><rect
           style="fill:#222b51"
           height="7.4000001"
           width="10.3"
           class="st13"
           y="289.39999"
           x="365.89999"
           id="XMLID_640_" /><circle
           style="fill:#575677"
           r="1.4"
           cy="297.39999"
           cx="343"
           class="st15"
           id="XMLID_639_" /><circle
           style="fill:#575677"
           r="1.4"
           cy="290.10001"
           cx="358.89999"
           class="st15"
           id="XMLID_638_" /></g></g><g
       transform="translate(-56,-112.80001)"
       id="g49"><path
         style="fill:#222b51"
         inkscape:connector-curvature="0"
         id="path51"
         d="m 195.9,163.5 0,148.7 17.5,0 0,-148.7 -17.5,0 z m 3.5,125.9 10.5,0 0,10.5 -10.5,0 0,-10.5 z m 0,-14 10.5,0 0,10.5 -10.5,0 0,-10.5 z m 0,-14 10.5,0 0,10.5 -10.5,0 0,-10.5 z m 0,-14 10.5,0 0,10.5 -10.5,0 0,-10.5 z m 0,-14 10.5,0 0,10.5 -10.5,0 0,-10.5 z m 0,-14 10.5,0 0,10.5 -10.5,0 0,-10.5 z m 0,-14 10.5,0 0,10.5 -10.5,0 0,-10.5 z m 0,-14 10.5,0 0,10.5 -10.5,0 0,-10.5 z m 0,-14 10.5,0 0,10.5 -10.5,0 0,-10.5 z"
         class="st13" /><polygon
         style="fill:#222b51"
         id="polygon53"
         points="313.9,172.2 305.2,163.5 156.5,163.5 156.5,172.2 "
         class="st13" /><polygon
         style="fill:#ffffff"
         id="polygon55"
         points="303.7,166.9 160,166.9 160,168.7 305.5,168.7 "
         class="st18" /><rect
         style="fill:#222b51"
         id="rect57"
         height="7"
         width="3.5"
         class="st13"
         y="164.3"
         x="287.70001" /><rect
         style="fill:#222b51"
         id="rect59"
         height="7"
         width="3.5"
         class="st13"
         y="164.3"
         x="298" /><rect
         style="fill:#222b51"
         id="rect61"
         height="7"
         width="3.5"
         class="st13"
         y="164.3"
         x="277.20001" /><rect
         style="fill:#222b51"
         id="rect63"
         height="7"
         width="3.5"
         class="st13"
         y="164.3"
         x="266.70001" /><rect
         style="fill:#222b51"
         id="rect65"
         height="7"
         width="3.5"
         class="st13"
         y="164.3"
         x="256.20001" /><rect
         style="fill:#222b51"
         id="rect67"
         height="7"
         width="3.5"
         class="st13"
         y="164.3"
         x="245.7" /><rect
         style="fill:#222b51"
         id="rect69"
         height="7"
         width="3.5"
         class="st13"
         y="164.3"
         x="235.2" /><rect
         style="fill:#222b51"
         id="rect71"
         height="7"
         width="3.5"
         class="st13"
         y="164.3"
         x="224.7" /><rect
         style="fill:#222b51"
         id="rect73"
         height="7"
         width="3.5"
         class="st13"
         y="164.3"
         x="214.2" /><rect
         style="fill:#222b51"
         id="rect75"
         height="7"
         width="3.5"
         class="st13"
         y="164.3"
         x="203.7" /><rect
         style="fill:#222b51"
         id="rect77"
         height="7"
         width="3.5"
         class="st13"
         y="164.3"
         x="193.2" /><rect
         style="fill:#222b51"
         id="rect79"
         height="7"
         width="3.5"
         class="st13"
         y="164.3"
         x="182.7" /><rect
         style="fill:#222b51"
         id="rect81"
         height="7"
         width="3.5"
         class="st13"
         y="164.3"
         x="172.2" /><rect
         style="fill:#db5a29"
         id="rect83"
         height="7"
         width="3.5"
         class="st82"
         y="164.3"
         x="161.7" /><polygon
         style="fill:#222b51"
         id="polygon85"
         points="211.8,187.8 200.1,176 197.6,178.5 209.9,190.6 "
         class="st13" /><polygon
         style="fill:#222b51"
         id="polygon87"
         points="197.4,200.9 209.1,189.1 211.6,191.6 199.4,203.7 "
         class="st13" /><polygon
         style="fill:#222b51"
         id="polygon89"
         points="211.8,214.9 200.1,203.1 197.6,205.6 209.9,217.7 "
         class="st13" /><polygon
         style="fill:#222b51"
         id="polygon91"
         points="197.4,228 209.1,216.3 211.6,218.7 199.4,230.8 "
         class="st13" /><polygon
         style="fill:#222b51"
         id="polygon93"
         points="211.8,242.9 200.1,231.1 197.6,233.6 209.9,245.7 "
         class="st13" /><polygon
         style="fill:#222b51"
         id="polygon95"
         points="197.4,256 209.1,244.2 211.6,246.7 199.4,258.8 "
         class="st13" /><polygon
         style="fill:#222b51"
         id="polygon97"
         points="211.8,272.3 200.1,260.5 197.6,263 209.9,275.1 "
         class="st13" /><polygon
         style="fill:#222b51"
         id="polygon99"
         points="211.8,299.4 200.1,287.6 197.6,290.1 209.9,302.2 "
         class="st13" /><polygon
         style="fill:#222b51"
         id="polygon101"
         points="197.4,285.4 209.1,273.7 211.6,276.1 199.4,288.2 "
         class="st13" /><rect
         style="fill:#575677"
         id="rect103"
         height="5.1999998"
         width="17.5"
         class="st15"
         y="172.2"
         x="195.89999" /><path
         style="fill:#575677"
         inkscape:connector-curvature="0"
         id="path105"
         d="m 147.3,181.8 14.1,0 c 2.1,0 3.9,-1.7 3.9,-3.9 l 0,-14.5 -18,0 c -2.1,0 -3.9,1.7 -3.9,3.9 l 0,10.6 c 0,2.2 1.7,3.9 3.9,3.9 z"
         class="st15" /><rect
         style="fill:#7c7894"
         id="rect107"
         height="11.4"
         width="14.9"
         class="st83"
         y="166.89999"
         x="146.89999" /></g><g
       transform="translate(-56,-112.80001)"
       id="XMLID_615_"><g
         id="XMLID_620_"><path
           style="clip-rule:evenodd;fill:#222b51;fill-rule:evenodd"
           inkscape:connector-curvature="0"
           d="m 85.7,245.9 c 1,-23.6 20.9,-42 44.5,-41 23.6,1 42,20.9 41,44.5 -1,23.6 -20.9,42 -44.5,41 -23.6,-1 -41.9,-20.9 -41,-44.5 z m 67.8,2.9 c 0.6,-13.9 -10.2,-25.5 -24.1,-26.1 -13.9,-0.6 -25.5,10.2 -26.1,24.1 -0.6,13.9 10.2,25.5 24.1,26.1 13.9,0.5 25.6,-10.2 26.1,-24.1 z"
           class="st38"
           id="XMLID_634_" /><path
           style="fill:#86829c"
           inkscape:connector-curvature="0"
           d="m 136.6,243.3 c -1.2,-1.5 -1.7,-3.2 -1.4,-5 0.2,-1.9 1.1,-3.4 2.6,-4.6 1.5,-1.2 3.1,-1.6 5,-1.4 1.9,0.2 3.4,1.1 4.6,2.6 1.2,1.5 1.7,3.2 1.4,5 -0.2,1.9 -1.1,3.4 -2.5,4.6 -1.5,1.2 -3.2,1.6 -5,1.4 -2,-0.3 -3.5,-1.2 -4.7,-2.6 z M 165,220.8 c -1.2,-1.5 -1.7,-3.2 -1.4,-5 0.2,-1.9 1.1,-3.4 2.5,-4.6 1.5,-1.2 3.2,-1.6 5,-1.4 1.9,0.2 3.4,1.1 4.6,2.6 1.2,1.5 1.6,3.2 1.4,5 -0.2,1.9 -1.1,3.4 -2.6,4.6 -1.5,1.2 -3.2,1.6 -5,1.4 -1.8,-0.2 -3.3,-1.1 -4.5,-2.6 z"
           class="st14"
           id="XMLID_631_" /><polygon
           style="fill:#6dc3c3"
           points="98.6,283.6 109.9,288.2 135,224.8 124.7,220.3 "
           class="st106"
           id="XMLID_630_" /><path
           style="fill:#6dc3c3"
           inkscape:connector-curvature="0"
           d="m 140,195.4 c -18,-12.5 -41.3,-12.6 -55.5,0.6 -19.2,17.7 -23.5,39.5 0.2,73.6 0.2,0.6 0.4,1.5 0.2,2.7 -0.2,0.9 12.8,-12.4 27.4,-27.6 22.8,-19.6 88.2,-73.1 27.7,-49.3 z"
           class="st106"
           id="XMLID_629_" /><g
           id="XMLID_622_"><g
             id="XMLID_627_"><path
               style="fill:#222b51"
               inkscape:connector-curvature="0"
               d="m 154.1,310.8 c 0,-9 -10.3,-16.3 -22.9,-16.3 -12.6,0 -22.8,7.4 -22.8,16.4 l 0,25.6 45.7,-0.1 0,-25.6 z"
               class="st13"
               id="XMLID_628_" /></g><path
             style="fill:#706d8b"
             inkscape:connector-curvature="0"
             d="m 119.5,296.3 c 0,0 4.4,-1 5.9,-1.3 l 0,12 -5.9,0 0,-10.7 z"
             class="st84"
             id="XMLID_626_" /><path
             style="fill:#706d8b"
             inkscape:connector-curvature="0"
             d="m 141.6,296.3 c 0,0 -3,-1 -5.9,-1.3 l 0,13.5 5.9,0 0,-12.2 z"
             class="st84"
             id="XMLID_625_" /><rect
             style="fill:#706d8b"
             height="5.9000001"
             width="22.1"
             class="st84"
             y="307.10001"
             x="119.5"
             id="XMLID_624_" /><polygon
             style="fill:#706d8b"
             points="153.4,313 153.4,336.4 107.6,336.7 107.6,313 "
             class="st84"
             id="XMLID_623_" /></g><circle
           style="fill:#ffffff"
           r="4.5"
           cy="197.89999"
           cx="104.3"
           class="st18"
           id="XMLID_621_" /></g><g
         id="XMLID_616_"><path
           style="fill:#b5dcea"
           inkscape:connector-curvature="0"
           d="m 97.1,251.8 -2.6,-2.6 c -0.6,-0.6 -0.6,-1.7 0,-2.3 l 15.2,-15.2 c 0.6,-0.6 3.2,0.9 3.9,1.5 l -0.4,-0.4 c 0.6,0.6 2.2,3.2 1.5,3.9 l -15.2,15.2 c -0.7,0.5 -1.7,0.5 -2.4,-0.1 z"
           class="st85"
           id="XMLID_619_" /><polygon
           style="fill:#ebf5fa"
           points="109.7,231.6 116.9,229.5 114.7,236.7 "
           class="st86"
           id="XMLID_618_" /><polygon
           style="fill:#222b51"
           points="116.9,229.5 114.8,230.1 116.2,231.5 "
           class="st13"
           id="XMLID_617_" /></g></g><rect
       style="fill:#575677"
       id="rect127"
       height="21.4"
       width="1.1"
       class="st15"
       y="59.199974"
       x="247.5" /><path
       style="fill:#222b51"
       inkscape:connector-curvature="0"
       id="path129"
       d="m 252.7,87.999979 -9.1,0 c -0.7,0 -1.3,-0.6 -1.3,-1.3 l 0,-5.4 c 0,-0.7 0.6,-1.3 1.3,-1.3 l 9.1,0 c 0.7,0 1.3,0.6 1.3,1.3 l 0,5.4 c 0,0.8 -0.6,1.3 -1.3,1.3 z"
       class="st13" /></g></svg>